<?xml version="1.0" encoding="utf-8"?>
<!-- Generator: Adobe Illustrator 17.0.0, SVG Export Plug-In . SVG Version: 6.00 Build 0)  -->
<!DOCTYPE svg PUBLIC "-//W3C//DTD SVG 1.1//EN" "http://www.w3.org/Graphics/SVG/1.1/DTD/svg11.dtd">
<svg version="1.1" xmlns="http://www.w3.org/2000/svg" xmlns:xlink="http://www.w3.org/1999/xlink" x="0px" y="0px" width="108px"
	 height="124px" viewBox="0 0 108 124" enable-background="new 0 0 108 124" xml:space="preserve">
<g id="outlines">
	<polyline points="100,40 100,100 96,100 96,104 92,104 92,108 84,108 84,112 40,112 40,108 32,108 32,104 28,104 28,100 24,100 
		24,40 	"/>
	<rect x="36" y="120" width="52" height="4"/>
	<rect x="28" y="116" width="8" height="4"/>
	<rect x="24" y="104" width="4" height="12"/>
	<rect x="88" y="116" width="8" height="4"/>
	<rect x="96" y="104" width="4" height="12"/>
	<rect x="16" y="92" width="8" height="4"/>
	<rect x="16" y="80" width="8" height="4"/>
	<rect x="12" y="44" width="4" height="36"/>
	<rect x="16" y="40" width="8" height="4"/>
	<rect x="8" y="88" width="8" height="4"/>
	<rect x="4" y="80" width="4" height="8"/>
	<rect x="0" y="40" width="4" height="40"/>
	<rect x="4" y="36" width="4" height="4"/>
	<rect x="8" y="32" width="8" height="4"/>
	<rect x="16" y="28" width="8" height="4"/>
</g>
<g id="glass">
	<polyline fill="#FFFFFF" points="96,40 96,100 92,100 92,104 84,104 84,108 40,108 40,104 32,104 32,100 28,100 28,40 	"/>
	<rect x="16" y="84" fill="#FFFFFF" width="12" height="8"/>
	<rect x="8" y="80" fill="#FFFFFF" width="8" height="8"/>
	<rect x="4" y="40" fill="#FFFFFF" width="8" height="40"/>
	<rect x="8" y="36" fill="#FFFFFF" width="8" height="8"/>
	<rect x="16" y="32" fill="#FFFFFF" width="12" height="8"/>
	<rect x="16" y="32" fill="#A7A9AC" width="8" height="4"/>
	<rect x="8" y="36" fill="#A7A9AC" width="8" height="4"/>
	<rect x="4" y="40" fill="#B8BABC" width="4" height="4"/>
	<rect x="4" y="44" fill="#EBEBEC" width="4" height="16"/>
	<rect x="8" y="40" fill="#EBEBEC" width="4" height="8"/>
	<rect x="12" y="40" fill="#EBEBEC" width="4" height="4"/>
	<rect x="16" y="36" fill="#EBEBEC" width="12" height="4"/>
	<rect x="28" y="40" fill="#CAAF75" width="4" height="8"/>
	<rect x="28" y="48" fill="#F2E0A2" width="4" height="16"/>
	<rect x="92" y="60" fill="#FFFFFF" width="4" height="8"/>
	<rect x="28" y="112" fill="#FFFFFF" width="68" height="4"/>
	<rect x="36" y="116" fill="#FFFFFF" width="52" height="4"/>
	<rect x="92" y="104" fill="#B8BABC" width="4" height="4"/>
	<rect x="28" y="104" fill="#B8BABC" width="4" height="4"/>
	<rect x="32" y="108" fill="#F4EFE5" width="8" height="4"/>
	<rect x="84" y="108" fill="#F4EFE5" width="8" height="4"/>
	<rect x="92" y="108" fill="#FFFFFF" width="4" height="4"/>
	<rect x="28" y="108" fill="#EBEBEC" width="4" height="4"/>
	<rect x="40" y="112" fill="#F4EFE5" width="44" height="4"/>
	<rect x="16" y="84" fill="#F2E0A2" width="12" height="4"/>
	<rect x="12" y="80" fill="#F2E0A2" width="4" height="0"/>
	<rect x="12" y="80" fill="#F2E0A2" width="4" height="4"/>
	<rect x="92" y="64" fill="#FBF6E8" width="4" height="12"/>
	<rect x="28" y="64" fill="#FBF6E8" width="4" height="12"/>
	<rect x="32" y="96" fill="#FBF6E8" width="4" height="4"/>
	<rect x="40" y="100" fill="#FBF6E8" width="4" height="4"/>
	<rect x="80" y="100" fill="#FBF6E8" width="4" height="4"/>
	<rect x="88" y="96" fill="#FBF6E8" width="4" height="4"/>
	<rect x="24" y="80" fill="#8F8C7B" width="4" height="4"/>
	<rect x="24" y="40" fill="#8F8C7B" width="4" height="4"/>
	<rect x="84" y="104" fill="#BEB4A3" width="8" height="4"/>
	<rect x="32" y="104" fill="#BEB4A3" width="8" height="4"/>
	<rect x="40" y="108" fill="#BEB4A3" width="44" height="4"/>
</g>
<g id="beer">
	<polyline fill="#FDCA49" points="32,40 32,96 36,96 36,100 44,100 44,104 80,104 80,100 88,100 88,96 92,96 92,40 	"/>
	<rect x="40" y="40" fill="#F89B37" width="4" height="40"/>
	<rect x="52" y="44" fill="#EAA82D" width="12" height="4"/>
	<rect x="64" y="48" fill="#EAA82D" width="4" height="4"/>
	<rect x="68" y="60" fill="#EAA82D" width="4" height="4"/>
	<rect x="72" y="64" fill="#EAA82D" width="4" height="4"/>
	<rect x="76" y="68" fill="#EAA82D" width="8" height="0"/>
	<rect x="76" y="68" fill="#EAA82D" width="8" height="4"/>
	<rect x="84" y="64" fill="#EAA82D" width="8" height="4"/>
	<rect x="92" y="60" fill="#F2E0A2" width="4" height="4"/>
	<rect x="76" y="88" fill="#F9C543" width="4" height="4"/>
	<rect x="72" y="84" fill="#EAA82D" width="4" height="4"/>
	<rect x="88" y="76" fill="#EAA82D" width="4" height="4"/>
	<rect x="56" y="56" fill="#EAA82D" width="4" height="4"/>
	<rect x="48" y="80" fill="#FFD174" width="4" height="4"/>
	<rect x="88" y="88" fill="#FFE2A8" width="4" height="8"/>
	<rect x="80" y="96" fill="#FFE2A8" width="8" height="4"/>
	<rect x="44" y="100" fill="#FFE2A8" width="36" height="4"/>
	<rect x="36" y="96" fill="#FFE2A8" width="8" height="4"/>
	<rect x="32" y="88" fill="#FFE2A8" width="4" height="8"/>
	<rect x="56" y="60" fill="#F2C780" width="4" height="8"/>
	<rect x="72" y="88" fill="#FFD174" width="4" height="4"/>
	<rect x="88" y="80" fill="#FFD174" width="4" height="4"/>
	<rect x="56" y="72" fill="#F9C543" width="4" height="4"/>
	<rect x="36" y="40" opacity="0.5" fill="#FAAD5F" width="4" height="24"/>
	<rect x="60" y="76" fill="#F9C543" width="4" height="4"/>
	<rect x="56" y="76" fill="#FACF6D" width="4" height="8"/>
	<rect x="68" y="68" fill="#E9C956" width="4" height="4"/>
	<rect x="68" y="72" fill="#EDD279" width="4" height="4"/>
	<rect x="36" y="64" opacity="0.2" fill="#FAAD5F" width="4" height="12"/>
	<rect x="44" y="88" fill="#E9C956" width="4" height="4"/>
	<rect x="44" y="92" fill="#EDD279" width="4" height="4"/>
	<rect x="44" y="40" fill="#E9C956" width="4" height="4"/>
	<rect x="44" y="44" fill="#EDD279" width="4" height="4"/>
	<rect x="40" y="80" fill="#FAAD5F" width="4" height="8"/>
	<rect x="48" y="60" fill="#FACF6D" width="4" height="8"/>
	<rect x="60" y="96" fill="#BAA867" width="4" height="4"/>
	<rect x="60" y="100" fill="#EDD279" width="4" height="4"/>
	<rect x="44" y="64" fill="#EAA82D" width="4" height="4"/>
	<rect x="44" y="68" fill="#EDD279" width="4" height="4"/>
</g>
<g id="foam">
	<rect x="28" y="36" width="24" height="4"/>
	<rect x="52" y="40" width="12" height="4"/>
	<rect x="64" y="44" width="4" height="4"/>
	<rect x="68" y="48" width="4" height="12"/>
	<rect x="72" y="60" width="4" height="4"/>
	<rect x="76" y="64" width="8" height="4"/>
	<rect x="84" y="60" width="8" height="4"/>
	<rect x="92" y="48" width="4" height="12"/>
	<rect x="104" y="20" width="4" height="16"/>
	<rect x="96" y="8" width="4" height="4"/>
	<rect x="84" y="4" width="12" height="4"/>
	<rect x="72.463" width="11.537" height="4"/>
	<rect x="64" y="4" width="8" height="4"/>
	<rect x="55.896" width="8.104" height="4"/>
	<rect x="32" y="4" width="24" height="4"/>
	<rect x="24" y="12" width="4" height="8"/>
	<rect x="20" y="20" width="4" height="12"/>
	<rect x="96" y="44" width="4" height="4"/>
	<rect x="100" y="36" width="4" height="8"/>
	<rect x="100" y="12" width="4" height="8"/>
	<rect x="28" y="20" fill="#FBF6E8" width="76" height="16"/>
	<rect x="52" y="36" fill="#FBF6E8" width="48" height="4"/>
	<rect x="64" y="40" fill="#FBF6E8" width="32" height="4"/>
	<rect x="68" y="44" fill="#FBF6E8" width="28" height="4"/>
	<rect x="72" y="48" fill="#FBF6E8" width="20" height="12"/>
	<rect x="76" y="60" fill="#FBF6E8" width="8" height="4"/>
	<rect x="92" y="48" fill="#61605B" width="4" height="8"/>
	<rect x="28" y="16" fill="#FBF6E8" width="72" height="4"/>
	<rect x="32" y="12" fill="#FBF6E8" width="68" height="4"/>
	<rect x="28" y="8" fill="#FFFFFF" width="68" height="4"/>
	<rect x="72" y="4" fill="#FFFFFF" width="12" height="4"/>
	<rect x="56" y="4" fill="#FFFFFF" width="8" height="4"/>
	<rect x="84" y="12" fill="#FFFFFF" width="16" height="4"/>
	<rect x="64" y="12" fill="#FFFFFF" width="8" height="4"/>
	<rect x="28" y="12" fill="#FFFFFF" width="24" height="4"/>
	<rect x="28" y="16" fill="#FFFFFF" width="4" height="4"/>
	<rect x="24" y="20" fill="#FFFFFF" width="4" height="16"/>
	<rect x="96" y="16" fill="#FFFFFF" width="4" height="4"/>
	<rect x="96" y="20" fill="#FFFFFF" width="8" height="4"/>
	<rect x="100" y="24" fill="#FFFFFF" width="4" height="12"/>
	<rect x="96" y="36" fill="#FFFFFF" width="4" height="4"/>
	<rect x="52" y="36" fill="#FFFFFF" width="4" height="4"/>
	<rect x="92" y="44" fill="#FFFFFF" width="4" height="4"/>
	<rect x="88" y="56" fill="#FFFFFF" width="4" height="4"/>
	<rect x="76" y="60" fill="#FFFFFF" width="8" height="4"/>
	<rect x="72" y="56" fill="#FFFFFF" width="4" height="4"/>
	<rect x="68" y="44" fill="#FFFFFF" width="4" height="4"/>
	<rect x="64" y="40" fill="#FFFFFF" width="4" height="4"/>
	<rect x="24" y="32" width="4" height="4"/>
	<rect x="28" y="8" width="4" height="4"/>
</g>
</svg>
