<?xml version="1.0" encoding="utf-8"?>
<!-- Generator: Adobe Illustrator 17.0.0, SVG Export Plug-In . SVG Version: 6.00 Build 0)  -->
<!DOCTYPE svg PUBLIC "-//W3C//DTD SVG 1.1//EN" "http://www.w3.org/Graphics/SVG/1.1/DTD/svg11.dtd">
<svg version="1.1" xmlns="http://www.w3.org/2000/svg" xmlns:xlink="http://www.w3.org/1999/xlink" x="0px" y="0px" width="256px"
	 height="256px" viewBox="0 0 256 256" enable-background="new 0 0 256 256" xml:space="preserve">
<g id="Layer_1">
	<rect fill="#71C6CF" width="256" height="256"/>
</g>
<g id="Layer_4" display="none">
	<rect x="16.333" display="inline" fill="#C1C6C6" width="223.667" height="256"/>
</g>
<g id="Layer_5">
	<rect x="32" y="8" fill="#8CA297" width="192" height="240"/>
	<rect x="28" y="48" fill="#8CA297" width="200" height="160"/>
	<rect x="24" y="104" fill="#8CA297" width="208" height="48"/>
	<rect x="60" y="4" fill="#8CA297" width="136" height="248"/>
	<rect x="32" y="12" fill="#B6C1BB" width="4" height="32"/>
	<rect x="32" y="48" fill="#B6C1BB" width="4" height="44"/>
	<rect x="28" y="48" fill="#B6C1BB" width="4" height="160"/>
	<rect x="24" y="104" fill="#B6C1BB" width="4" height="48"/>
	<rect x="36" y="16" fill="#DEDDDD" width="4" height="32"/>
	<rect x="32" y="48" fill="#DEDDDD" width="4" height="44"/>
	<rect x="32" y="164" fill="#DEDDDD" width="4" height="44"/>
	<rect x="36" y="216" fill="#DEDDDD" width="4" height="32"/>
	<rect x="32" y="164" fill="#B6C1BB" width="4" height="80"/>
	<rect x="32" y="164" fill="#DEDDDD" width="4" height="44"/>
	<rect x="28" y="96" fill="#DEDDDD" width="4" height="64"/>
	<rect x="40" y="16" fill="#B6C1BB" width="8" height="32"/>
	<rect x="36" y="52" fill="#B6C1BB" width="8" height="44"/>
	<rect x="32" y="96" fill="#B6C1BB" width="8" height="68"/>
	<rect x="36" y="168" fill="#B6C1BB" width="8" height="44"/>
	<rect x="40" y="216" fill="#9CADA4" width="8" height="32"/>
	<rect x="48" y="16" fill="#9CADA4" width="8" height="32"/>
	<rect x="44" y="52" fill="#9CADA4" width="8" height="44"/>
	<rect x="40" y="100" fill="#9CADA4" width="8" height="64"/>
	<rect x="44" y="168" fill="#9CADA4" width="8" height="44"/>
	<rect x="48" y="216" fill="#9CADA4" width="8" height="32"/>
	<rect x="68" y="20" fill="#9CADA4" width="4" height="32"/>
	<rect x="64" y="56" fill="#9CADA4" width="4" height="44"/>
	<rect x="60" y="104" fill="#9CADA4" width="4" height="64"/>
	<rect x="64" y="172" fill="#9CADA4" width="4" height="44"/>
	<rect x="68" y="220" fill="#9CADA4" width="4" height="32"/>
	<rect x="220" y="152" fill="#616B66" width="8" height="56"/>
	<rect x="228" y="100" fill="#616B66" width="0" height="0"/>
	<rect x="220" y="48" fill="#616B66" width="8" height="56"/>
	<rect x="216" y="12" fill="#616B66" width="8" height="36"/>
	<rect x="216" y="208" fill="#616B66" width="8" height="40"/>
	<rect x="60" y="56" fill="#B6C1BB" width="136" height="4"/>
	<rect x="60" y="104" fill="#B6C1BB" width="136" height="4"/>
	<rect x="52" y="52" fill="#9CADA4" width="8" height="4"/>
	<rect x="196" y="52" fill="#9CADA4" width="24" height="4"/>
	<rect x="196" y="100" fill="#9CADA4" width="24" height="4"/>
	<rect x="220" y="96" fill="#7D9387" width="8" height="4"/>
	<rect x="220" y="164" fill="#7D9387" width="8" height="4"/>
	<rect x="196" y="168" fill="#9CADA4" width="24" height="4"/>
	<rect x="60" y="172" fill="#B6C1BB" width="136" height="4"/>
	<rect x="52" y="168" fill="#9CADA4" width="8" height="4"/>
	<rect x="56" y="216" fill="#9CADA4" width="4" height="4"/>
	<rect x="60" y="220" fill="#B6C1BB" width="136" height="4"/>
	<rect x="196" y="216" fill="#9CADA4" width="24" height="4"/>
	<rect x="220" y="212" fill="#7D9387" width="4" height="4"/>
	<rect x="220" y="48" fill="#7D9387" width="8" height="4"/>
	<rect x="224" y="104" fill="#616B66" width="8" height="48"/>
	<rect x="212" y="52" fill="#616B66" width="4" height="52"/>
	<rect x="216" y="104" fill="#616B66" width="4" height="48"/>
	<rect x="212" y="152" fill="#616B66" width="4" height="56"/>
	<rect x="208" y="208" fill="#616B66" width="4" height="40"/>
	<rect x="60" y="20" fill="#B6C1BB" width="136" height="4"/>
	<rect x="196" y="16" fill="#B6C1BB" width="24" height="4"/>
	<rect x="40" y="16" fill="#B6C1BB" width="20" height="4"/>
	<rect x="220" y="12" fill="#7D9387" width="4" height="4"/>
	<rect x="208" y="16" fill="#616B66" width="4" height="32"/>
	<rect x="208" y="16" fill="#7D9387" width="4" height="4"/>
	<rect x="216" y="16" fill="#7D9387" width="4" height="4"/>
	<rect x="212" y="100" fill="#7D9387" width="4" height="4"/>
	<rect x="212" y="168" fill="#7D9387" width="4" height="4"/>
	<rect x="208" y="216" fill="#7D9387" width="4" height="4"/>
	<rect x="200" y="20" fill="#798C82" width="8" height="28"/>
	<rect x="204" y="56" fill="#798C82" width="8" height="40"/>
	<rect x="208" y="104" fill="#798C82" width="8" height="48"/>
	<rect x="204" y="152" fill="#798C82" width="8" height="12"/>
	<rect x="204" y="172" fill="#798C82" width="8" height="36"/>
	<rect x="200" y="208" fill="#798C82" width="8" height="4"/>
	<rect x="200" y="220" fill="#798C82" width="8" height="28"/>
</g>
<g id="Layer_2">
	<rect x="36" y="48" fill="#4F5B56" width="24" height="4"/>
	<rect x="220" y="44" fill="#4F5B56" width="4" height="4"/>
	<rect x="196" y="48" fill="#4F5B56" width="24" height="4"/>
	<rect x="60" y="52" fill="#4F5B56" width="136" height="4"/>
	<rect x="36" y="4" width="24" height="4"/>
	<rect x="196" y="4" width="24" height="4"/>
	<rect x="60" width="136" height="4"/>
	<rect x="28" y="12" width="4" height="36"/>
	<rect x="224" y="12" width="4" height="36"/>
	<rect x="32" y="8" width="4" height="4"/>
	<rect x="36" y="12" width="24" height="4"/>
	<rect x="220" y="8" width="4" height="4"/>
	<rect x="196" y="12" width="24" height="4"/>
	<rect x="60" y="16" width="136" height="4"/>
	<rect x="32" y="44" fill="#4F5B56" width="4" height="4"/>
	<rect x="24" y="48" width="4" height="56"/>
	<rect x="228" y="48" width="4" height="56"/>
	<rect x="148" y="28" width="28" height="4"/>
	<rect x="176" y="32" width="4" height="12"/>
	<rect x="148" y="44" width="28" height="4"/>
	<rect x="144" y="32" width="4" height="12"/>
	<rect x="28" y="92" fill="#4F5B56" width="8" height="4"/>
	<rect x="36" y="96" fill="#4F5B56" width="24" height="4"/>
	<rect x="60" y="100" fill="#4F5B56" width="136" height="4"/>
	<rect x="220" y="92" fill="#4F5B56" width="8" height="4"/>
	<rect x="196" y="96" fill="#4F5B56" width="24" height="4"/>
	<rect x="36" y="164" fill="#4F5B56" width="24" height="4"/>
	<rect x="220" y="208" fill="#4F5B56" width="4" height="4"/>
	<rect x="196" y="164" fill="#4F5B56" width="24" height="4"/>
	<rect x="60" y="168" fill="#4F5B56" width="136" height="4"/>
	<rect x="36" y="248" width="24" height="4"/>
	<rect x="196" y="248" width="24" height="4"/>
	<rect x="60" y="252" width="136" height="4"/>
	<rect x="28" y="208" width="4" height="36"/>
	<rect x="224" y="208" width="4" height="36"/>
	<rect x="32" y="244" width="4" height="4"/>
	<rect x="220" y="244" width="4" height="4"/>
	<rect x="32" y="208" fill="#4F5B56" width="4" height="4"/>
	<rect x="24" y="152" width="4" height="56"/>
	<rect x="228" y="152" width="4" height="56"/>
	<rect x="28" y="160" fill="#4F5B56" width="8" height="4"/>
	<rect x="36" y="212" fill="#4F5B56" width="24" height="4"/>
	<rect x="60" y="216" fill="#4F5B56" width="136" height="4"/>
	<rect x="220" y="160" fill="#4F5B56" width="8" height="4"/>
	<rect x="196" y="212" fill="#4F5B56" width="24" height="4"/>
	<rect x="20" y="104" width="4" height="48"/>
	<rect x="232" y="104" width="4" height="48"/>
</g>
<g id="Layer_3">
</g>
</svg>
