<?xml version="1.0" encoding="utf-8"?>
<!-- Generator: Adobe Illustrator 17.0.0, SVG Export Plug-In . SVG Version: 6.00 Build 0)  -->
<!DOCTYPE svg PUBLIC "-//W3C//DTD SVG 1.1//EN" "http://www.w3.org/Graphics/SVG/1.1/DTD/svg11.dtd">
<svg version="1.1" xmlns="http://www.w3.org/2000/svg" xmlns:xlink="http://www.w3.org/1999/xlink" x="0px" y="0px" width="96px"
	 height="118px" viewBox="0 0 96 118" enable-background="new 0 0 96 118" xml:space="preserve">
<g id="Layer_2">
	<polygon fill="#A7A9AC" points="94,36 92,36 92,24 90,24 90,6 88,6 88,4 76,4 76,2 20,2 20,4 8,4 8,6 6,6 6,24 4,24 4,36 2,36 
		2,82 4,82 4,94 6,94 6,112 8,112 8,114 20,114 20,116 76,116 76,114 88,114 88,112 90,112 90,94 92,94 92,82 94,82 	"/>
	<g>
		<rect x="2" y="36" fill="#C9CACC" width="4" height="46"/>
		<polygon fill="#C9CACC" points="10,112 10,94 8,94 8,84 4,84 4,94 6,94 6,112 8,112 8,114 12,114 12,112 		"/>
		<polygon fill="#C9CACC" points="8,24 10,24 10,6 6,6 6,24 4,24 4,34 8,34 		"/>
	</g>
	<g>
		<rect x="10" y="8" fill="#EBEBEC" width="2" height="16"/>
		<rect x="8" y="24" fill="#EBEBEC" width="2" height="12"/>
		<rect x="6" y="36" fill="#EBEBEC" width="2" height="46"/>
		<rect x="8" y="86" fill="#EBEBEC" width="2" height="8"/>
		<rect x="10" y="94" fill="#EBEBEC" width="2" height="18"/>
		<rect x="12" y="112" fill="#EBEBEC" width="2" height="2"/>
	</g>
	<g>
		<polygon fill="#C9CACC" points="14,24 16,24 16,8 12,8 12,24 10,24 10,36 14,36 		"/>
		<rect x="8" y="38" fill="#C9CACC" width="4" height="46"/>
		<polygon fill="#C9CACC" points="16,112 16,94 14,94 14,86 10,86 10,94 12,94 12,112 14,112 14,114 18,114 18,112 		"/>
	</g>
	<g>
		<rect x="16" y="8" fill="#B8BABC" width="2" height="16"/>
		<rect x="14" y="24" fill="#B8BABC" width="2" height="12"/>
		<rect x="12" y="38" fill="#B8BABC" width="2" height="46"/>
		<rect x="14" y="86" fill="#B8BABC" width="2" height="8"/>
		<rect x="16" y="94" fill="#B8BABC" width="2" height="18"/>
		<rect x="18" y="112" fill="#B8BABC" width="2" height="2"/>
	</g>
	<g>
		<rect x="24" y="10" fill="#C9CACC" width="2" height="16"/>
		<rect x="22" y="26" fill="#C9CACC" width="2" height="68"/>
		<rect x="24" y="94" fill="#C9CACC" width="2" height="22"/>
	</g>
	<g>
		<polygon fill="#636466" points="88,34 92,34 92,24 90,24 90,6 86,6 86,24 88,24 		"/>
		<rect x="90" y="36" fill="#636466" width="4" height="46"/>
		<polygon fill="#636466" points="88,94 86,94 86,112 90,112 90,94 92,94 92,84 88,84 		"/>
	</g>
	<polygon fill="#7C7D80" points="88,36 88,24 86,24 86,10 82,10 82,24 84,24 84,36 86,36 86,86 84,86 84,94 82,94 82,112 86,112 
		86,94 88,94 88,86 90,86 90,36 	"/>
	<g>
		<polygon fill="#939598" points="80,36 84,36 84,24 82,24 82,10 78,10 78,24 80,24 		"/>
		<polygon fill="#939598" points="82,40 82,84 80,84 80,94 78,94 78,112 82,112 82,94 84,94 84,84 86,84 86,40 		"/>
	</g>
	<rect x="58" y="18" fill="#7C7D80" width="14" height="6"/>
	<g>
		<rect x="58" y="26" fill="#C9CACC" width="14" height="2"/>
		<rect x="56" y="24" fill="#C9CACC" width="2" height="2"/>
		<rect x="72" y="24" fill="#C9CACC" width="2" height="2"/>
	</g>
	<rect x="58" y="16" fill="#636466" width="14" height="2"/>
	<rect x="8" y="2" fill="#7C7D80" width="80" height="6"/>
	<rect x="20" y="6" fill="#636466" width="56" height="2"/>
	<rect x="56" y="98" fill="#7D7E81" width="4" height="4"/>
	<g>
		<rect x="26" y="10" fill="#B8BABC" width="2" height="16"/>
		<rect x="24" y="26" fill="#B8BABC" width="2" height="68"/>
		<rect x="26" y="94" fill="#B8BABC" width="2" height="22"/>
	</g>
</g>
<g id="Layer_4">
	<g>
		<rect x="20" y="40" fill="#C9CACC" width="56" height="2"/>
		<rect x="76" y="38" fill="#C9CACC" width="12" height="2"/>
		<rect x="8" y="38" fill="#C9CACC" width="12" height="2"/>
		<rect x="2" y="36" fill="#C9CACC" width="6" height="2"/>
		<rect x="88" y="36" fill="#C9CACC" width="6" height="2"/>
	</g>
	<g>
		<rect x="20" y="88" fill="#C9CACC" width="56" height="2"/>
		<rect x="76" y="86" fill="#C9CACC" width="12" height="2"/>
		<rect x="8" y="86" fill="#C9CACC" width="12" height="2"/>
		<rect x="2" y="84" fill="#C9CACC" width="6" height="2"/>
		<rect x="88" y="84" fill="#C9CACC" width="6" height="2"/>
	</g>
	<g>
		<rect x="20" y="10" fill="#C9CACC" width="56" height="2"/>
		<rect x="76" y="8" fill="#C9CACC" width="12" height="2"/>
		<rect x="88" y="6" fill="#C9CACC" width="2" height="2"/>
		<rect x="8" y="8" fill="#C9CACC" width="12" height="2"/>
		<rect x="6" y="6" fill="#C9CACC" width="2" height="2"/>
	</g>
	<g>
		<rect x="20" y="114" fill="#7E7F81" width="56" height="2"/>
		<rect x="76" y="112" fill="#7E7F81" width="12" height="2"/>
		<rect x="88" y="110" fill="#7E7F81" width="2" height="2"/>
		<rect x="8" y="112" fill="#7E7F81" width="12" height="2"/>
		<rect x="6" y="110" fill="#7E7F81" width="2" height="2"/>
	</g>
</g>
<g id="outlines">
	<rect x="8" y="2" fill="#010101" width="12" height="2"/>
	<rect x="20.034" y="0" fill="#010101" width="55.966" height="2"/>
	<rect x="4" y="6" fill="#010101" width="2" height="18"/>
	<rect x="6" y="4" fill="#010101" width="2" height="2"/>
	<rect x="2" y="24" fill="#010101" width="2" height="12"/>
	<rect y="36" fill="#010101" width="2" height="46"/>
	<rect x="76" y="2" fill="#010101" width="12" height="2"/>
	<rect x="90" y="6" fill="#010101" width="2" height="18"/>
	<rect x="88" y="4" fill="#010101" width="2" height="2"/>
	<rect x="92" y="24" fill="#010101" width="2" height="12"/>
	<rect x="94" y="36" fill="#010101" width="2" height="46"/>
	<rect x="8" y="6" fill="#010101" width="12" height="2"/>
	<rect x="20.034" y="8" fill="#010101" width="55.966" height="2"/>
	<rect x="76" y="6" fill="#010101" width="12" height="2"/>
	<rect x="8" y="36" fill="#010101" width="12" height="2"/>
	<rect x="20.034" y="38" fill="#010101" width="55.966" height="2"/>
	<rect x="4" y="34" fill="#010101" width="4" height="2"/>
	<rect x="76" y="36" fill="#010101" width="12" height="2"/>
	<rect x="88" y="34" fill="#010101" width="4" height="2"/>
	<rect x="8" y="114" fill="#010101" width="12" height="2"/>
	<rect x="20.034" y="116" fill="#010101" width="55.966" height="2"/>
	<rect x="4" y="94" fill="#010101" width="2" height="18"/>
	<rect x="6" y="112" fill="#010101" width="2" height="2"/>
	<rect x="2" y="82" fill="#010101" width="2" height="12"/>
	<rect x="76" y="114" fill="#010101" width="12" height="2"/>
	<rect x="90" y="94" fill="#010101" width="2" height="18"/>
	<rect x="88" y="112" fill="#010101" width="2" height="2"/>
	<rect x="92" y="82" fill="#010101" width="2" height="12"/>
	<rect x="8" y="84" fill="#010101" width="12" height="2"/>
	<rect x="20.034" y="86" fill="#010101" width="55.966" height="2"/>
	<rect x="4" y="82" fill="#010101" width="4" height="2"/>
	<rect x="76" y="84" fill="#010101" width="12" height="2"/>
	<rect x="88" y="82" fill="#010101" width="4" height="2"/>
	<rect x="58" y="14" fill="#010101" width="14" height="2"/>
	<rect x="56" y="16" fill="#010101" width="2" height="8"/>
	<rect x="72" y="16" fill="#010101" width="2" height="8"/>
	<rect x="58" y="24" fill="#010101" width="14" height="2"/>
	<rect x="24" y="28" fill="#010101" width="4" height="4"/>
	<rect x="24" y="94" fill="#010101" width="4" height="4"/>
	<g>
		<rect x="56" y="96" fill="#636466" width="4" height="2"/>
		<rect x="54" y="98" fill="#636466" width="2" height="4"/>
		<rect x="60" y="98" fill="#636466" width="2" height="4"/>
		<rect x="56" y="102" fill="#636466" width="4" height="2"/>
	</g>
</g>
<g id="stripe">
	<rect x="20" y="68" fill="#CC864B" width="56" height="10"/>
	<rect x="76" y="66" fill="#CC864B" width="6" height="10"/>
	<rect x="82" y="66" fill="#A97F59" width="4" height="10"/>
	<rect x="88" y="64" fill="#846E5A" width="2" height="10"/>
	<rect x="90" y="64" fill="#5C544D" width="4" height="10"/>
	<rect x="86" y="66" fill="#A97F59" width="2" height="10"/>
	<rect x="22" y="68" fill="#DDB087" width="2" height="10"/>
	<rect x="14" y="66" fill="#CC864B" width="6" height="10"/>
	<rect x="12" y="66" fill="#D49A69" width="2" height="10"/>
	<rect x="8" y="66" fill="#DDB087" width="4" height="10"/>
	<rect x="6" y="64" fill="#E7C7AA" width="2" height="10"/>
	<rect x="2" y="64" fill="#DDB087" width="4" height="10"/>
	<rect x="24" y="68" fill="#D49A69" width="2" height="10"/>
	<rect x="34" y="68" fill="#A7A9AC" width="4" height="2"/>
	<rect x="40" y="68" fill="#A7A9AC" width="2" height="2"/>
	<rect x="70" y="76" fill="#A7A9AC" width="2" height="2"/>
	<rect x="66" y="76" fill="#A7A9AC" width="2" height="2"/>
	<rect x="58" y="76" fill="#A7A9AC" width="6" height="2"/>
</g>
<g id="Layer_5">
	<rect x="24" y="28" fill="#565759" width="4" height="4"/>
	<rect x="24" y="94" fill="#565759" width="4" height="4"/>
	<rect x="24" y="28" fill="#7D7E81" width="2" height="2"/>
	<rect x="24" y="94" fill="#7D7E81" width="2" height="2"/>
</g>
</svg>
