<?xml version="1.0" encoding="utf-8"?>
<!-- Generator: Adobe Illustrator 17.0.0, SVG Export Plug-In . SVG Version: 6.00 Build 0)  -->
<!DOCTYPE svg PUBLIC "-//W3C//DTD SVG 1.1//EN" "http://www.w3.org/Graphics/SVG/1.1/DTD/svg11.dtd">
<svg version="1.1" id="Layer_1" xmlns="http://www.w3.org/2000/svg" xmlns:xlink="http://www.w3.org/1999/xlink" x="0px" y="0px"
	 width="191.833px" height="240px" viewBox="40.5 8.5 191.833 240" enable-background="new 40.5 8.5 191.833 240"
	 xml:space="preserve">
<rect x="52.507" y="16.5" fill="#8CA297" width="167.982" height="224"/>
<rect x="48.504" y="60.5" fill="#8CA297" width="175.989" height="144"/>
<polygon fill="#8CA297" points="44.5,104.5 228.496,104.5 228.496,156.5 44.5,157 "/>
<rect x="80.532" y="16.5" fill="#8CA297" width="111.932" height="232"/>
<rect x="52.5" y="20.5" fill="#B6C1BB" width="4" height="32"/>
<rect x="52.5" y="56.5" fill="#B6C1BB" width="4" height="35.5"/>
<rect x="48.5" y="60.5" fill="#B6C1BB" width="4" height="144"/>
<polygon fill="#B6C1BB" points="44.5,104.5 48.5,104.5 48.5,156.5 44.5,157 "/>
<rect x="56.5" y="24.5" fill="#DEDDDD" width="4" height="32"/>
<rect x="52.5" y="56.5" fill="#DEDDDD" width="4" height="35.5"/>
<rect x="52.5" y="164" fill="#DEDDDD" width="4" height="36.5"/>
<rect x="56.5" y="208.5" fill="#DEDDDD" width="4" height="32"/>
<rect x="52.5" y="164" fill="#B6C1BB" width="4" height="72.5"/>
<rect x="52.5" y="164" fill="#DEDDDD" width="4" height="36.5"/>
<rect x="48.5" y="100" fill="#DEDDDD" width="4" height="64"/>
<rect x="60.5" y="24.5" fill="#B6C1BB" width="8" height="32"/>
<rect x="56.5" y="60.5" fill="#B6C1BB" width="8" height="35.5"/>
<rect x="52.5" y="100" fill="#B6C1BB" width="8" height="68"/>
<rect x="56.5" y="168" fill="#B6C1BB" width="8" height="36.5"/>
<rect x="60.5" y="208.5" fill="#9CADA4" width="8" height="32"/>
<rect x="68.5" y="24.5" fill="#9CADA4" width="8" height="32"/>
<rect x="64.5" y="60.5" fill="#9CADA4" width="8" height="35.5"/>
<rect x="60.5" y="104" fill="#9CADA4" width="8" height="64"/>
<rect x="64.5" y="168" fill="#9CADA4" width="8" height="36.5"/>
<rect x="68.5" y="208.5" fill="#9CADA4" width="8" height="32"/>
<rect x="88.5" y="28.5" fill="#9CADA4" width="4" height="32"/>
<rect x="84.5" y="64.5" fill="#9CADA4" width="4" height="35.5"/>
<rect x="80.5" y="108" fill="#9CADA4" width="4" height="64"/>
<rect x="84.5" y="172" fill="#9CADA4" width="4" height="36.5"/>
<rect x="88.5" y="212.5" fill="#9CADA4" width="4" height="32"/>
<rect x="216.486" y="156" fill="#616B66" width="8.007" height="44.5"/>
<polygon fill="#616B66" points="224.493,100 224.493,100 224.493,100 "/>
<rect x="216.486" y="56.5" fill="#616B66" width="8.007" height="47.5"/>
<rect x="212.482" y="20.5" fill="#616B66" width="8.007" height="36"/>
<rect x="212.482" y="200.5" fill="#616B66" width="8.007" height="40"/>
<rect x="80.532" y="64.5" fill="#B6C1BB" width="111.932" height="4"/>
<rect x="80.532" y="104" fill="#B6C1BB" width="111.932" height="4"/>
<rect x="72.5" y="60.5" fill="#9CADA4" width="8" height="4"/>
<rect x="192.464" y="60.5" fill="#9CADA4" width="24.021" height="4"/>
<rect x="192.464" y="100" fill="#9CADA4" width="24.021" height="4"/>
<rect x="216.486" y="96" fill="#7D9387" width="8.007" height="4"/>
<rect x="216.486" y="164" fill="#7D9387" width="8.007" height="4"/>
<rect x="192.464" y="168" fill="#9CADA4" width="24.021" height="4"/>
<rect x="80.532" y="172" fill="#B6C1BB" width="111.932" height="4"/>
<rect x="72.5" y="168" fill="#9CADA4" width="8" height="4"/>
<rect x="76.5" y="208.5" fill="#9CADA4" width="4" height="4"/>
<rect x="80.532" y="212.5" fill="#B6C1BB" width="111.932" height="4"/>
<rect x="192.464" y="208.5" fill="#9CADA4" width="24.021" height="4"/>
<rect x="216.486" y="204.5" fill="#7D9387" width="4.004" height="4"/>
<rect x="216.486" y="56.5" fill="#7D9387" width="8.007" height="4"/>
<rect x="220.489" y="104" fill="#616B66" width="8.007" height="52"/>
<rect x="208.479" y="60.5" fill="#616B66" width="4.004" height="43.5"/>
<rect x="212.482" y="104" fill="#616B66" width="4.004" height="52"/>
<rect x="208.479" y="156" fill="#616B66" width="4.004" height="44.5"/>
<rect x="204.475" y="200.5" fill="#616B66" width="4.004" height="40"/>
<rect x="80.532" y="28.5" fill="#B6C1BB" width="111.932" height="4"/>
<rect x="192.464" y="24.5" fill="#B6C1BB" width="24.021" height="4"/>
<rect x="60.5" y="24.5" fill="#B6C1BB" width="20" height="4"/>
<rect x="216.486" y="20.5" fill="#7D9387" width="4.004" height="4"/>
<rect x="204.475" y="24.5" fill="#616B66" width="4.004" height="32"/>
<rect x="204.475" y="24.5" fill="#7D9387" width="4.004" height="4"/>
<rect x="212.482" y="24.5" fill="#7D9387" width="4.004" height="4"/>
<rect x="208.479" y="100" fill="#7D9387" width="4.004" height="4"/>
<rect x="208.479" y="168" fill="#7D9387" width="4.004" height="4"/>
<rect x="204.475" y="208.5" fill="#7D9387" width="4.004" height="4"/>
<rect x="196.468" y="28.5" fill="#798C82" width="8.007" height="28"/>
<rect x="200.472" y="64.5" fill="#798C82" width="8.007" height="31.5"/>
<rect x="204.475" y="104" fill="#798C82" width="8.007" height="52"/>
<rect x="200.472" y="156" fill="#798C82" width="8.007" height="8"/>
<rect x="200.472" y="172" fill="#798C82" width="8.007" height="28.5"/>
<rect x="196.468" y="200.5" fill="#798C82" width="8.007" height="4"/>
<rect x="196.468" y="212.5" fill="#798C82" width="8.007" height="28"/>
<rect x="56.5" y="56.5" fill="#4F5B56" width="24" height="4"/>
<rect x="216.486" y="52.5" fill="#4F5B56" width="4.004" height="4"/>
<rect x="192.464" y="56.5" fill="#4F5B56" width="24.021" height="4"/>
<rect x="80.532" y="60.5" fill="#4F5B56" width="111.932" height="4"/>
<rect x="56.5" y="12.5" width="24" height="4"/>
<rect x="192.464" y="12.5" width="24.021" height="4"/>
<rect x="80.532" y="8.5" width="111.932" height="4"/>
<rect x="48.5" y="20.5" width="4" height="36"/>
<rect x="220.489" y="20.5" width="4.004" height="36"/>
<rect x="52.5" y="16.5" width="4" height="4"/>
<rect x="56.5" y="20.5" width="24" height="4"/>
<rect x="216.486" y="16.5" width="4.004" height="4"/>
<rect x="192.464" y="20.5" width="24.021" height="4"/>
<rect x="80.532" y="24.5" width="111.932" height="4"/>
<rect x="52.5" y="52.5" fill="#4F5B56" width="4" height="4"/>
<rect x="44.5" y="56.5" width="4" height="47.5"/>
<rect x="224.493" y="56.5" width="4.004" height="47.5"/>
<rect x="108.5" y="32.5" fill="#4F5B56" width="28" height="4"/>
<rect x="136.5" y="36.5" fill="#4F5B56" width="4" height="12"/>
<rect x="108.5" y="48.5" fill="#3B4441" width="28" height="4"/>
<rect x="104.5" y="36.5" fill="#4F5B56" width="4" height="12"/>
<rect x="48.5" y="92" fill="#4F5B56" width="8" height="4"/>
<rect x="56.5" y="96" fill="#4F5B56" width="24" height="4"/>
<rect x="80.532" y="100" fill="#4F5B56" width="111.932" height="4"/>
<rect x="216.486" y="92" fill="#4F5B56" width="8.007" height="4"/>
<rect x="192.464" y="96" fill="#4F5B56" width="24.021" height="4"/>
<rect x="56.5" y="164" fill="#4F5B56" width="24" height="4"/>
<rect x="216.486" y="200.5" fill="#4F5B56" width="4.004" height="4"/>
<rect x="192.464" y="164" fill="#4F5B56" width="24.021" height="4"/>
<rect x="80.532" y="168" fill="#4F5B56" width="111.932" height="4"/>
<rect x="56.5" y="240.5" width="24" height="4"/>
<rect x="192.464" y="240.5" width="24.021" height="4"/>
<rect x="80.532" y="244.5" width="111.932" height="4"/>
<rect x="48.5" y="200.5" width="4" height="36"/>
<rect x="220.489" y="200.5" width="4.004" height="36"/>
<rect x="52.5" y="236.5" width="4" height="4"/>
<rect x="216.486" y="236.5" width="4.004" height="4"/>
<rect x="52.5" y="200.5" fill="#4F5B56" width="4" height="4"/>
<rect x="44.5" y="156.5" width="4" height="44.5"/>
<rect x="224.493" y="156" width="4.004" height="44.5"/>
<rect x="48.5" y="160" fill="#4F5B56" width="8" height="4"/>
<rect x="56.5" y="204.5" fill="#4F5B56" width="24" height="4"/>
<rect x="80.532" y="208.5" fill="#4F5B56" width="111.932" height="4"/>
<rect x="216.486" y="160" fill="#4F5B56" width="8.007" height="4"/>
<rect x="192.464" y="204.5" fill="#4F5B56" width="24.021" height="4"/>
<rect x="40.5" y="104.5" width="4" height="52"/>
<rect x="228.496" y="104" width="4.004" height="52.5"/>
<rect x="108.5" y="36.5" fill="#B6C1BB" width="28" height="4"/>
<rect x="108.5" y="40.5" fill="#798C82" width="28" height="8"/>
<rect x="80.532" y="12.5" fill="#B6C1BB" width="111.932" height="4"/>
<rect x="80.532" y="20.5" fill="#798C82" width="111.932" height="4"/>
<rect x="80.532" y="116" fill="#F68B1F" width="111.932" height="16"/>
<rect x="192.464" y="112" fill="#F68B1F" width="12.011" height="16"/>
<rect x="68.5" y="112" fill="#F68B1F" width="12" height="16"/>
<rect x="204.475" y="112" fill="#B96817" width="8.007" height="16"/>
<rect x="216.486" y="112" fill="#B96817" width="4.004" height="16"/>
<rect x="212.482" y="112" fill="#7B4610" width="4.004" height="16"/>
<rect x="220.489" y="108" fill="#7B4610" width="8.007" height="16"/>
<rect x="60.5" y="112" fill="#F8A24C" width="8" height="16"/>
<rect x="52.5" y="112" fill="#FAB979" width="8" height="16"/>
<rect x="48.5" y="108" fill="#FBD1A5" width="4" height="16"/>
<rect x="44.5" y="108" fill="#FAB979" width="4" height="16"/>
</svg>
