<?xml version="1.0" encoding="utf-8"?>
<!-- Generator: Adobe Illustrator 17.0.0, SVG Export Plug-In . SVG Version: 6.00 Build 0)  -->
<!DOCTYPE svg PUBLIC "-//W3C//DTD SVG 1.1//EN" "http://www.w3.org/Graphics/SVG/1.1/DTD/svg11.dtd">
<svg version="1.1" id="Layer_1" xmlns="http://www.w3.org/2000/svg" xmlns:xlink="http://www.w3.org/1999/xlink" x="0px" y="0px"
	 width="544px" height="64px" viewBox="0 0 544 64" enable-background="new 0 0 544 64" xml:space="preserve">
<polygon fill="#ECF4DB" points="534,16 534,18 526,18 526,20 522,20 522,22 518,22 518,24 514,24 514,26 512,26 512,28 510,28 
	510,30 508,30 508,32 506,32 506,34 504,34 504,36 502,36 502,40 500,40 500,44 498,44 498,46 494,46 494,44 490,44 490,42 482,42 
	482,40 472,40 462,40 462,42 454,42 454,44 450,44 450,46 448,46 448,44 446,44 446,42 444,42 444,40 440,40 440,38 436,38 436,36 
	430,36 430,34 422,34 414,34 414,36 408,36 408,38 404,38 404,40 400,40 400,42 398,42 396,42 396,40 394,40 394,38 392,38 392,36 
	390,36 390,34 388,34 388,32 384,32 384,30 380,30 380,28 376,28 376,26 368,26 368,24 358,24 348,24 348,26 344,26 344,24 342,24 
	342,20 340,20 340,18 338,18 338,16 336,16 336,14 334,14 334,12 332,12 332,10 330,10 330,8 326,8 326,6 322,6 322,4 318,4 318,2 
	310,2 310,0 300,0 290,0 290,2 282,2 282,4 278,4 278,6 274,6 274,8 270,8 270,10 268,10 268,12 266,12 266,14 264,14 264,16 
	262,16 262,18 260,18 260,20 258,20 254,20 254,18 248,18 248,16 240,16 232,16 232,18 226,18 226,20 224,20 224,18 222,18 222,16 
	218,16 218,14 214,14 214,12 210,12 210,10 202,10 202,8 192,8 182,8 182,10 174,10 174,12 170,12 170,14 166,14 166,16 162,16 
	162,18 160,18 160,20 158,20 158,22 156,22 156,24 154,24 154,26 152,26 152,28 150,28 150,32 148,32 148,36 146,36 146,40 144,40 
	144,38 142,38 142,36 140,36 140,34 138,34 138,32 134,32 134,30 130,30 130,28 124,28 124,26 116,26 108,26 108,28 102,28 102,30 
	98,30 98,32 94,32 94,34 92,34 92,36 90,36 90,38 88,38 88,40 86,40 84,40 84,38 76,38 76,36 66,36 56,36 56,38 48,38 48,40 44,40 
	42,40 42,36 40,36 40,34 38,34 38,32 36,32 36,30 34,30 34,28 32,28 32,26 30,26 30,24 26,24 26,22 22,22 22,20 18,20 18,18 10,18 
	10,16 0,16 0,64 544,64 544,16 "/>
</svg>
