<?xml version="1.0" encoding="utf-8"?>
<!-- Generator: Adobe Illustrator 17.0.0, SVG Export Plug-In . SVG Version: 6.00 Build 0)  -->
<!DOCTYPE svg PUBLIC "-//W3C//DTD SVG 1.1//EN" "http://www.w3.org/Graphics/SVG/1.1/DTD/svg11.dtd">
<svg version="1.1" id="Layer_1" xmlns="http://www.w3.org/2000/svg" xmlns:xlink="http://www.w3.org/1999/xlink" x="0px" y="0px"
	 width="208px" height="17.5px" viewBox="0 0 208 17.5" enable-background="new 0 0 208 17.5" xml:space="preserve">
<rect x="0" y="4" fill="#75C044" width="208" height="8"/>
<rect x="10" y="8" fill="#B6E551" width="8" height="2"/>
<rect x="12" y="6" fill="#B6E551" width="8" height="2"/>
<rect x="14" y="4" fill="#B6E551" width="8" height="2"/>
<rect x="0" y="2" fill="#D7F77F" width="208" height="2"/>
<rect x="0" width="208" height="2"/>
<rect x="0" y="14" fill="#DCA944" width="208" height="3.5"/>
<rect x="0" y="12" fill="#6CA442" width="208" height="2"/>
<rect x="8" y="10" fill="#B6E551" width="8" height="2"/>
<rect x="26" y="8" fill="#B6E551" width="8" height="2"/>
<rect x="28" y="6" fill="#B6E551" width="8" height="2"/>
<rect x="30" y="4" fill="#B6E551" width="8" height="2"/>
<rect x="24" y="10" fill="#B6E551" width="8" height="2"/>
<rect x="42" y="8" fill="#B6E551" width="8" height="2"/>
<rect x="44" y="6" fill="#B6E551" width="8" height="2"/>
<rect x="46" y="4" fill="#B6E551" width="8" height="2"/>
<rect x="40" y="10" fill="#B6E551" width="8" height="2"/>
<rect x="58" y="8" fill="#B6E551" width="8" height="2"/>
<rect x="60" y="6" fill="#B6E551" width="8" height="2"/>
<rect x="62" y="4" fill="#B6E551" width="8" height="2"/>
<rect x="56" y="10" fill="#B6E551" width="8" height="2"/>
<rect x="74" y="8" fill="#B6E551" width="8" height="2"/>
<rect x="76" y="6" fill="#B6E551" width="8" height="2"/>
<rect x="78" y="4" fill="#B6E551" width="8" height="2"/>
<rect x="72" y="10" fill="#B6E551" width="8" height="2"/>
<rect x="90" y="8" fill="#B6E551" width="8" height="2"/>
<rect x="92" y="6" fill="#B6E551" width="8" height="2"/>
<rect x="94" y="4" fill="#B6E551" width="8" height="2"/>
<rect x="88" y="10" fill="#B6E551" width="8" height="2"/>
<rect x="106" y="8" fill="#B6E551" width="8" height="2"/>
<rect x="108" y="6" fill="#B6E551" width="8" height="2"/>
<rect x="110" y="4" fill="#B6E551" width="8" height="2"/>
<rect x="104" y="10" fill="#B6E551" width="8" height="2"/>
<rect x="122" y="8" fill="#B6E551" width="8" height="2"/>
<rect x="124" y="6" fill="#B6E551" width="8" height="2"/>
<rect x="126" y="4" fill="#B6E551" width="8" height="2"/>
<rect x="120" y="10" fill="#B6E551" width="8" height="2"/>
<rect x="138" y="8" fill="#B6E551" width="8" height="2"/>
<rect x="140" y="6" fill="#B6E551" width="8" height="2"/>
<rect x="142" y="4" fill="#B6E551" width="8" height="2"/>
<rect x="136" y="10" fill="#B6E551" width="8" height="2"/>
<rect x="154" y="8" fill="#B6E551" width="8" height="2"/>
<rect x="156" y="6" fill="#B6E551" width="8" height="2"/>
<rect x="158" y="4" fill="#B6E551" width="8" height="2"/>
<rect x="152" y="10" fill="#B6E551" width="8" height="2"/>
<rect x="170" y="8" fill="#B6E551" width="8" height="2"/>
<rect x="172" y="6" fill="#B6E551" width="8" height="2"/>
<rect x="174" y="4" fill="#B6E551" width="8" height="2"/>
<rect x="168" y="10" fill="#B6E551" width="8" height="2"/>
<rect x="186" y="8" fill="#B6E551" width="8" height="2"/>
<rect x="188" y="6" fill="#B6E551" width="8" height="2"/>
<rect x="190" y="4" fill="#B6E551" width="8" height="2"/>
<rect x="184" y="10" fill="#B6E551" width="8" height="2"/>
<rect y="8" fill="#B6E551" width="2" height="2"/>
<rect y="6" fill="#B6E551" width="4" height="2"/>
<rect y="4" fill="#B6E551" width="6" height="2"/>
<rect x="202" y="8" fill="#B6E551" width="6" height="2"/>
<rect x="204" y="6" fill="#B6E551" width="4" height="2"/>
<rect x="206" y="4" fill="#B6E551" width="2" height="2"/>
<rect x="200" y="10" fill="#B6E551" width="8" height="2"/>
</svg>
