<?xml version="1.0" encoding="utf-8"?>
<!-- Generator: Adobe Illustrator 17.0.0, SVG Export Plug-In . SVG Version: 6.00 Build 0)  -->
<!DOCTYPE svg PUBLIC "-//W3C//DTD SVG 1.1//EN" "http://www.w3.org/Graphics/SVG/1.1/DTD/svg11.dtd">
<svg version="1.1" id="Layer_1" xmlns="http://www.w3.org/2000/svg" xmlns:xlink="http://www.w3.org/1999/xlink" x="0px" y="0px"
	 width="416px" height="35px" viewBox="0 0 416 35" enable-background="new 0 0 416 35" xml:space="preserve">
<rect y="8" fill="#75C044" width="416" height="16"/>
<rect x="20" y="16" fill="#B6E551" width="16" height="4"/>
<rect x="24" y="12" fill="#B6E551" width="16" height="4"/>
<rect x="28" y="8" fill="#B6E551" width="16" height="4"/>
<rect y="4" fill="#D7F77F" width="416" height="4"/>
<rect width="416" height="4"/>
<rect y="28" fill="#DCA944" width="416" height="7"/>
<rect y="24" fill="#6CA442" width="416" height="4"/>
<rect x="16" y="20" fill="#B6E551" width="16" height="4"/>
<rect x="52" y="16" fill="#B6E551" width="16" height="4"/>
<rect x="56" y="12" fill="#B6E551" width="16" height="4"/>
<rect x="60" y="8" fill="#B6E551" width="16" height="4"/>
<rect x="48" y="20" fill="#B6E551" width="16" height="4"/>
<rect x="84" y="16" fill="#B6E551" width="16" height="4"/>
<rect x="88" y="12" fill="#B6E551" width="16" height="4"/>
<rect x="92" y="8" fill="#B6E551" width="16" height="4"/>
<rect x="80" y="20" fill="#B6E551" width="16" height="4"/>
<rect x="116" y="16" fill="#B6E551" width="16" height="4"/>
<rect x="120" y="12" fill="#B6E551" width="16" height="4"/>
<rect x="124" y="8" fill="#B6E551" width="16" height="4"/>
<rect x="112" y="20" fill="#B6E551" width="16" height="4"/>
<rect x="148" y="16" fill="#B6E551" width="16" height="4"/>
<rect x="152" y="12" fill="#B6E551" width="16" height="4"/>
<rect x="156" y="8" fill="#B6E551" width="16" height="4"/>
<rect x="144" y="20" fill="#B6E551" width="16" height="4"/>
<rect x="180" y="16" fill="#B6E551" width="16" height="4"/>
<rect x="184" y="12" fill="#B6E551" width="16" height="4"/>
<rect x="188" y="8" fill="#B6E551" width="16" height="4"/>
<rect x="176" y="20" fill="#B6E551" width="16" height="4"/>
<rect x="212" y="16" fill="#B6E551" width="16" height="4"/>
<rect x="216" y="12" fill="#B6E551" width="16" height="4"/>
<rect x="220" y="8" fill="#B6E551" width="16" height="4"/>
<rect x="208" y="20" fill="#B6E551" width="16" height="4"/>
<rect x="244" y="16" fill="#B6E551" width="16" height="4"/>
<rect x="248" y="12" fill="#B6E551" width="16" height="4"/>
<rect x="252" y="8" fill="#B6E551" width="16" height="4"/>
<rect x="240" y="20" fill="#B6E551" width="16" height="4"/>
<rect x="276" y="16" fill="#B6E551" width="16" height="4"/>
<rect x="280" y="12" fill="#B6E551" width="16" height="4"/>
<rect x="284" y="8" fill="#B6E551" width="16" height="4"/>
<rect x="272" y="20" fill="#B6E551" width="16" height="4"/>
<rect x="308" y="16" fill="#B6E551" width="16" height="4"/>
<rect x="312" y="12" fill="#B6E551" width="16" height="4"/>
<rect x="316" y="8" fill="#B6E551" width="16" height="4"/>
<rect x="304" y="20" fill="#B6E551" width="16" height="4"/>
<rect x="340" y="16" fill="#B6E551" width="16" height="4"/>
<rect x="344" y="12" fill="#B6E551" width="16" height="4"/>
<rect x="348" y="8" fill="#B6E551" width="16" height="4"/>
<rect x="336" y="20" fill="#B6E551" width="16" height="4"/>
<rect x="372" y="16" fill="#B6E551" width="16" height="4"/>
<rect x="376" y="12" fill="#B6E551" width="16" height="4"/>
<rect x="380" y="8" fill="#B6E551" width="16" height="4"/>
<rect x="368" y="20" fill="#B6E551" width="16" height="4"/>
<rect y="16" fill="#B6E551" width="4" height="4"/>
<rect y="12" fill="#B6E551" width="8" height="4"/>
<rect y="8" fill="#B6E551" width="12" height="4"/>
<rect x="404" y="16" fill="#B6E551" width="12" height="4"/>
<rect x="408" y="12" fill="#B6E551" width="8" height="4"/>
<rect x="412" y="8" fill="#B6E551" width="4" height="4"/>
<rect x="400" y="20" fill="#B6E551" width="16" height="4"/>
</svg>
