<?xml version="1.0" encoding="utf-8"?>
<!-- Generator: Adobe Illustrator 17.0.0, SVG Export Plug-In . SVG Version: 6.00 Build 0)  -->
<!DOCTYPE svg PUBLIC "-//W3C//DTD SVG 1.1//EN" "http://www.w3.org/Graphics/SVG/1.1/DTD/svg11.dtd">
<svg version="1.1" xmlns="http://www.w3.org/2000/svg" xmlns:xlink="http://www.w3.org/1999/xlink" x="0px" y="0px" width="352px"
	 height="58px" viewBox="0 0 352 58" enable-background="new 0 0 352 58" xml:space="preserve">
<g id="Layer_1">
	<polygon fill="#8FCC88" points="324,24 324,18 322,18 322,14 320,14 320,12 318,12 318,10 316,10 316,8 314,8 314,6 312,6 312,4 
		308,4 308,2 302,2 302,0 286,0 286,2 280,2 280,4 276,4 276,6 274,6 274,8 272,8 272,10 270,10 270,12 268,12 268,14 266,14 
		262,14 262,12 256,12 256,10 240,10 240,12 234,12 234,14 230,14 230,16 228,16 228,18 226,18 226,20 224,20 224,22 222,22 222,24 
		220,24 220,28 218,28 218,34 216,34 216,42 216,50 218,50 218,56 220,56 220,58 312,58 314,58 314,56 316,56 316,54 318,54 318,52 
		320,52 320,50 322,50 322,46 324,46 324,40 326,40 326,32 326,24 	"/>
	<polygon fill="#8FCC88" points="40,52 42,52 42,56 44,56 44,58 46,58 94,58 96,58 96,56 98,56 98,52 100,52 100,46 102,46 102,38 
		102,30 100,30 100,24 98,24 98,20 96,20 96,18 94,18 94,16 92,16 92,14 90,14 90,12 88,12 88,10 84,10 84,8 78,8 78,6 62,6 62,8 
		56,8 56,10 52,10 52,12 50,12 50,14 48,14 48,16 46,16 46,18 44,18 44,20 42,20 42,24 40,24 40,30 38,30 38,38 38,46 40,46 	"/>
	<rect x="98" y="24" fill="#83AB93" width="2" height="4"/>
	<rect x="96" y="20" fill="#83AB93" width="2" height="4"/>
	<rect x="94" y="18" fill="#83AB93" width="2" height="2"/>
	<rect x="92" y="16" fill="#83AB93" width="2" height="2"/>
	<rect x="90" y="14" fill="#83AB93" width="2" height="2"/>
	<rect x="88" y="12" fill="#83AB93" width="2" height="2"/>
	<rect x="84" y="10" fill="#83AB93" width="4" height="2"/>
	<rect x="78" y="8" fill="#83AB93" width="6" height="2"/>
	<rect x="62" y="6" fill="#83AB93" width="16" height="2"/>
	<rect x="56" y="8" fill="#83AB93" width="6" height="2"/>
	<rect x="52" y="10" fill="#83AB93" width="4" height="2"/>
	<rect x="50" y="12" fill="#83AB93" width="2" height="2"/>
	<rect x="48" y="14" fill="#83AB93" width="2" height="2"/>
	<rect x="46" y="16" fill="#83AB93" width="2" height="2"/>
	<rect x="44" y="18" fill="#83AB93" width="2" height="2"/>
	<polygon fill="#8FCC88" points="328,48 332,48 332,46 336,46 336,44 338,44 338,40 340,40 340,36 342,36 342,24 340,24 340,20 
		338,20 338,16 336,16 336,14 332,14 332,12 328,12 328,10 322,10 316,10 316,12 312,12 312,14 308,14 308,16 306,16 306,20 304,20 
		304,24 302,24 302,36 304,36 304,40 306,40 306,44 308,44 308,46 312,46 312,48 316,48 316,50 322,50 328,50 	"/>
	<rect x="218" y="28" fill="#83AB93" width="2" height="4"/>
	<rect x="220" y="24" fill="#83AB93" width="2" height="4"/>
	<rect x="222" y="22" fill="#83AB93" width="2" height="2"/>
	<rect x="224" y="20" fill="#83AB93" width="2" height="2"/>
	<rect x="226" y="18" fill="#83AB93" width="2" height="2"/>
	<rect x="228" y="16" fill="#83AB93" width="2" height="2"/>
	<rect x="230" y="14" fill="#83AB93" width="4" height="2"/>
	<rect x="234" y="12" fill="#83AB93" width="6" height="2"/>
	<rect x="240" y="10" fill="#83AB93" width="16" height="2"/>
	<rect x="256" y="12" fill="#83AB93" width="6" height="2"/>
	<rect x="262" y="14" fill="#83AB93" width="4" height="2"/>
	<rect x="266" y="16" fill="#83AB93" width="2" height="2"/>
	<rect x="268" y="18" fill="#83AB93" width="2" height="2"/>
	<rect x="270" y="20" fill="#83AB93" width="2" height="2"/>
	<rect x="266" y="14" fill="#83AB93" width="2" height="2"/>
	<rect x="268" y="12" fill="#83AB93" width="2" height="2"/>
	<rect x="270" y="10" fill="#83AB93" width="2" height="2"/>
	<rect x="272" y="8" fill="#83AB93" width="2" height="2"/>
	<rect x="274" y="6" fill="#83AB93" width="2" height="2"/>
	<rect x="276" y="4" fill="#83AB93" width="4" height="2"/>
	<rect x="280" y="2" fill="#83AB93" width="6" height="2"/>
	<rect x="286" y="0" fill="#83AB93" width="16" height="2"/>
	<rect x="302" y="2" fill="#83AB93" width="6" height="2"/>
	<rect x="308" y="4" fill="#83AB93" width="4" height="2"/>
	<rect x="312" y="6" fill="#83AB93" width="2" height="2"/>
	<rect x="314" y="8" fill="#83AB93" width="2" height="2"/>
	<rect x="316" y="10" fill="#83AB93" width="12" height="2"/>
	<rect x="312" y="12" fill="#83AB93" width="4" height="2"/>
	<rect x="308" y="14" fill="#83AB93" width="4" height="2"/>
	<rect x="328" y="12" fill="#83AB93" width="4" height="2"/>
	<rect x="332" y="14" fill="#83AB93" width="4" height="2"/>
	<rect x="336" y="16" fill="#83AB93" width="2" height="4"/>
	<rect x="338" y="20" fill="#83AB93" width="2" height="2"/>
	<polygon fill="#8FCC88" points="80,58 84,58 84,56 88,56 88,54 90,54 90,50 92,50 96,50 96,52 102,52 104,52 104,54 106,54 106,56 
		108,56 108,58 110,58 204,58 206,58 206,52 208,52 208,44 208,36 206,36 206,30 204,30 204,26 202,26 202,24 200,24 200,22 198,22 
		198,20 196,20 196,18 194,18 194,16 190,16 190,14 184,14 184,12 168,12 168,14 162,14 162,16 158,16 156,16 156,14 154,14 154,12 
		152,12 152,10 150,10 150,8 148,8 148,6 144,6 144,4 138,4 138,2 122,2 122,4 116,4 116,6 112,6 112,8 110,8 110,10 108,10 108,12 
		106,12 102,12 96,12 96,14 92,14 92,16 88,16 88,18 86,18 86,22 84,22 80,22 80,20 74,20 68,20 68,22 64,22 64,24 60,24 60,26 
		58,26 58,24 54,24 54,22 48,22 48,20 32,20 32,22 26,22 26,24 24,24 24,22 22,22 22,20 20,20 20,18 18,18 18,16 14,16 14,14 8,14 
		8,12 0,12 0,58 	"/>
	<polygon fill="#8FCC88" points="344,12 344,14 338,14 338,16 334,16 334,18 332,18 332,20 330,20 330,22 328,22 328,24 326,24 
		326,26 324,26 324,24 320,24 320,22 314,22 314,20 298,20 298,22 292,22 292,24 288,24 288,26 286,26 286,28 284,28 284,30 282,30 
		282,28 278,28 278,26 274,26 274,24 268,24 262,24 262,26 258,26 258,28 254,28 254,30 252,30 252,34 250,34 250,38 248,38 248,50 
		250,50 250,54 252,54 252,58 254,58 352,58 352,12 	"/>
</g>
<g id="Layer_3">
	<rect x="344" y="12" fill="#83AB93" width="8" height="2"/>
	<rect x="338" y="14" fill="#83AB93" width="6" height="2"/>
	<rect x="334" y="16" fill="#83AB93" width="4" height="2"/>
	<rect x="332" y="18" fill="#83AB93" width="2" height="2"/>
	<rect x="330" y="20" fill="#83AB93" width="2" height="2"/>
	<rect x="328" y="22" fill="#83AB93" width="2" height="2"/>
	<rect x="326" y="24" fill="#83AB93" width="2" height="2"/>
	<rect x="324" y="26" fill="#83AB93" width="2" height="4"/>
	<rect x="322" y="30" fill="#8FCC88" width="2" height="6"/>
	<rect x="322" y="30" fill="#83AB93" width="2" height="6"/>
	<rect x="320" y="24" fill="#83AB93" width="4" height="2"/>
	<rect x="314" y="22" fill="#83AB93" width="6" height="2"/>
	<rect x="298" y="20" fill="#83AB93" width="16" height="2"/>
	<rect x="292" y="22" fill="#83AB93" width="6" height="2"/>
	<rect x="288" y="24" fill="#83AB93" width="4" height="2"/>
	<rect x="286" y="26" fill="#83AB93" width="2" height="2"/>
	<rect x="284" y="28" fill="#83AB93" width="2" height="2"/>
	<rect x="282" y="30" fill="#83AB93" width="2" height="4"/>
	<rect x="278" y="28" fill="#83AB93" width="4" height="2"/>
	<rect x="274" y="26" fill="#83AB93" width="4" height="2"/>
	<rect x="262" y="24" fill="#83AB93" width="12" height="2"/>
	<rect x="258" y="26" fill="#83AB93" width="4" height="2"/>
	<rect x="284" y="34" fill="#83AB93" width="2" height="4"/>
	<rect x="204" y="30" fill="#83AB93" width="2" height="4"/>
	<rect x="202" y="26" fill="#83AB93" width="2" height="4"/>
	<rect x="200" y="24" fill="#83AB93" width="2" height="2"/>
	<rect x="198" y="22" fill="#83AB93" width="2" height="2"/>
	<rect x="196" y="20" fill="#83AB93" width="2" height="2"/>
	<rect x="194" y="18" fill="#83AB93" width="2" height="2"/>
	<rect x="190" y="16" fill="#83AB93" width="4" height="2"/>
	<rect x="184" y="14" fill="#83AB93" width="6" height="2"/>
	<rect x="168" y="12" fill="#83AB93" width="16" height="2"/>
	<rect x="162" y="14" fill="#83AB93" width="6" height="2"/>
	<rect x="158" y="16" fill="#83AB93" width="4" height="2"/>
	<rect x="156" y="18" fill="#83AB93" width="2" height="2"/>
	<rect x="154" y="20" fill="#83AB93" width="2" height="2"/>
	<rect x="152" y="22" fill="#83AB93" width="2" height="2"/>
	<rect x="156" y="16" fill="#83AB93" width="2" height="2"/>
	<rect x="154" y="14" fill="#83AB93" width="2" height="2"/>
	<rect x="152" y="12" fill="#83AB93" width="2" height="2"/>
	<rect x="150" y="10" fill="#83AB93" width="2" height="2"/>
	<rect x="148" y="8" fill="#83AB93" width="2" height="2"/>
	<rect x="144" y="6" fill="#83AB93" width="4" height="2"/>
	<rect x="138" y="4" fill="#83AB93" width="6" height="2"/>
	<rect x="122" y="2" fill="#83AB93" width="16" height="2"/>
	<rect x="116" y="4" fill="#83AB93" width="6" height="2"/>
	<rect x="112" y="6" fill="#83AB93" width="4" height="2"/>
	<rect x="110" y="8" fill="#83AB93" width="2" height="2"/>
	<rect x="108" y="10" fill="#83AB93" width="2" height="2"/>
	<rect x="96" y="12" fill="#83AB93" width="12" height="2"/>
	<rect x="108" y="14" fill="#83AB93" width="4" height="2"/>
	<rect x="112" y="16" fill="#83AB93" width="4" height="2"/>
	<rect x="92" y="14" fill="#83AB93" width="4" height="2"/>
	<rect x="88" y="16" fill="#83AB93" width="4" height="2"/>
	<rect x="86" y="18" fill="#83AB93" width="2" height="4"/>
	<rect x="84" y="22" fill="#83AB93" width="2" height="2"/>
	<rect x="80" y="22" fill="#83AB93" width="4" height="2"/>
	<rect x="68" y="20" fill="#83AB93" width="12" height="2"/>
	<rect x="64" y="22" fill="#83AB93" width="4" height="2"/>
	<rect x="86" y="24" fill="#83AB93" width="2" height="2"/>
	<rect x="62" y="24" fill="#83AB93" width="2" height="2"/>
	<rect x="60" y="24" fill="#83AB93" width="2" height="2"/>
	<rect x="88" y="26" fill="#83AB93" width="2" height="4"/>
	<rect x="54" y="24" fill="#83AB93" width="4" height="2"/>
	<rect x="58" y="26" fill="#83AB93" width="2" height="2"/>
	<rect x="48" y="22" fill="#83AB93" width="6" height="2"/>
	<rect x="56" y="28" fill="#83AB93" width="2" height="4"/>
	<rect x="32" y="20" fill="#83AB93" width="16" height="2"/>
	<rect x="26" y="22" fill="#83AB93" width="6" height="2"/>
	<rect x="22.25" y="24" fill="#83AB93" width="3.5" height="2"/>
	<rect x="22" y="22" fill="#83AB93" width="2" height="2"/>
	<rect x="20" y="20" fill="#83AB93" width="2" height="2"/>
	<rect x="18" y="18" fill="#83AB93" width="2" height="2"/>
	<rect x="14" y="16" fill="#83AB93" width="4" height="2"/>
	<rect x="8" y="14" fill="#83AB93" width="6" height="2"/>
	<rect x="0" y="12" fill="#83AB93" width="8" height="2"/>
	<rect x="20" y="26" fill="#83AB93" width="2" height="2"/>
	<rect x="18" y="28" fill="#83AB93" width="2" height="2"/>
	<rect x="16" y="30" fill="#83AB93" width="2" height="2"/>
	<polygon fill="#8FCC88" points="344,26 344,28 338,28 338,30 334,30 334,32 332,32 332,34 330,34 330,36 328,36 328,38 326,38 
		326,36 320,36 320,34 304,34 304,36 298,36 298,38 294,38 294,40 292,40 292,38 288,38 288,36 284,36 284,34 278,34 272,34 272,36 
		268,36 266,36 266,32 264,32 264,30 260,30 260,28 256,28 256,26 250,26 246,26 244,26 244,24 242,24 242,22 240,22 240,20 236,20 
		236,18 230,18 230,16 214,16 214,18 208,18 208,20 204,20 204,22 202,22 202,24 200,24 200,26 198,26 198,28 196,28 196,30 194,30 
		190,30 190,28 184,28 184,26 168,26 168,28 162,28 162,30 158,30 158,32 156,32 156,34 154,34 154,36 152,36 152,38 150,38 150,40 
		148,40 148,44 146,44 146,42 144,42 144,40 142,40 142,38 140,38 140,36 138,36 138,34 134,34 134,32 128,32 128,30 112,30 112,32 
		106,32 106,34 102,34 102,36 100,36 100,38 98,38 98,40 96,40 96,42 94,42 94,40 90,40 90,38 84,38 78,38 78,40 74,40 74,42 70,42 
		70,44 68,44 68,42 66,42 66,40 64,40 64,38 60,38 60,36 54,36 54,34 38,34 38,36 32,36 32,38 28,38 28,40 26,40 26,38 24,38 24,36 
		22,36 22,34 20,34 20,32 18,32 18,30 14,30 14,28 8,28 8,26 0,26 0,58 352,58 352,26 	"/>
</g>
<g id="Layer_2">
	<g>
		<rect x="0" y="26" fill="#83AB93" width="8" height="2"/>
		<rect x="8" y="28" fill="#83AB93" width="6" height="2"/>
		<rect x="14" y="30" fill="#83AB93" width="4" height="2"/>
		<rect x="18" y="32" fill="#83AB93" width="2" height="2"/>
		<rect x="20" y="34" fill="#83AB93" width="2" height="2"/>
		<rect x="22" y="36" fill="#83AB93" width="2" height="2"/>
		<rect x="24" y="38" fill="#83AB93" width="2" height="2"/>
		<rect x="26" y="40" fill="#83AB93" width="2" height="4"/>
		<rect x="28" y="44" fill="#8FCC88" width="2" height="6"/>
		<rect x="28" y="44" fill="#83AB93" width="2" height="6"/>
		<rect x="28" y="38" fill="#83AB93" width="4" height="2"/>
		<rect x="32" y="36" fill="#83AB93" width="6" height="2"/>
		<rect x="38" y="34" fill="#83AB93" width="16" height="2"/>
		<rect x="54" y="36" fill="#83AB93" width="6" height="2"/>
		<rect x="60" y="38" fill="#83AB93" width="4" height="2"/>
		<rect x="64" y="40" fill="#83AB93" width="2" height="2"/>
		<rect x="66" y="42" fill="#83AB93" width="2" height="2"/>
		<rect x="68" y="44" fill="#83AB93" width="2" height="4"/>
		<rect x="70" y="42" fill="#83AB93" width="4" height="2"/>
		<rect x="74" y="40" fill="#83AB93" width="4" height="2"/>
		<rect x="78" y="38" fill="#83AB93" width="12" height="2"/>
		<rect x="90" y="40" fill="#83AB93" width="4" height="2"/>
		<rect x="66" y="48" fill="#83AB93" width="2" height="4"/>
		<rect x="94" y="42" fill="#83AB93" width="2" height="2"/>
		<rect x="96" y="40" fill="#83AB93" width="2" height="2"/>
		<rect x="98" y="38" fill="#83AB93" width="2" height="2"/>
		<rect x="100" y="36" fill="#83AB93" width="2" height="2"/>
		<rect x="102" y="34" fill="#83AB93" width="4" height="2"/>
		<rect x="106" y="32" fill="#83AB93" width="6" height="2"/>
		<rect x="112" y="30" fill="#83AB93" width="16" height="2"/>
		<rect x="128" y="32" fill="#83AB93" width="6" height="2"/>
		<rect x="134" y="34" fill="#83AB93" width="4" height="2"/>
		<rect x="138" y="36" fill="#83AB93" width="2" height="2"/>
		<rect x="140" y="38" fill="#83AB93" width="2" height="2"/>
		<rect x="142" y="40" fill="#83AB93" width="2" height="2"/>
		<rect x="144" y="42" fill="#83AB93" width="2" height="2"/>
		<rect x="146" y="44" fill="#83AB93" width="2" height="4"/>
		<rect x="92" y="44" fill="#83AB93" width="2" height="4"/>
		<rect x="148" y="40" fill="#83AB93" width="2" height="4"/>
		<rect x="150" y="38" fill="#83AB93" width="2" height="2"/>
		<rect x="152" y="36" fill="#83AB93" width="2" height="2"/>
		<rect x="154" y="34" fill="#83AB93" width="2" height="2"/>
		<rect x="156" y="32" fill="#83AB93" width="2" height="2"/>
		<rect x="158" y="30" fill="#83AB93" width="4" height="2"/>
		<rect x="162" y="28" fill="#83AB93" width="6" height="2"/>
		<rect x="168" y="26" fill="#83AB93" width="16" height="2"/>
		<rect x="184" y="28" fill="#83AB93" width="6" height="2"/>
		<rect x="190" y="30" fill="#83AB93" width="4" height="2"/>
		<rect x="194" y="32" fill="#83AB93" width="2" height="2"/>
		<rect x="196" y="34" fill="#83AB93" width="2" height="2"/>
		<rect x="198" y="36" fill="#83AB93" width="2" height="2"/>
		<rect x="194" y="30" fill="#83AB93" width="2" height="2"/>
		<rect x="196" y="28" fill="#83AB93" width="2" height="2"/>
		<rect x="198" y="26" fill="#83AB93" width="2" height="2"/>
		<rect x="200" y="24" fill="#83AB93" width="2" height="2"/>
		<rect x="202" y="22" fill="#83AB93" width="2" height="2"/>
		<rect x="204" y="20" fill="#83AB93" width="4" height="2"/>
		<rect x="208" y="18" fill="#83AB93" width="6" height="2"/>
		<rect x="214" y="16" fill="#83AB93" width="16" height="2"/>
		<rect x="230" y="18" fill="#83AB93" width="6" height="2"/>
		<rect x="236" y="20" fill="#83AB93" width="4" height="2"/>
		<rect x="240" y="22" fill="#83AB93" width="2" height="2"/>
		<rect x="242" y="24" fill="#83AB93" width="2" height="2"/>
		<rect x="244" y="26" fill="#83AB93" width="12" height="2"/>
		<rect x="240" y="28" fill="#83AB93" width="4" height="2"/>
		<rect x="236" y="30" fill="#83AB93" width="4" height="2"/>
		<rect x="256" y="28" fill="#83AB93" width="4" height="2"/>
		<rect x="260" y="30" fill="#83AB93" width="4" height="2"/>
		<rect x="264" y="32" fill="#83AB93" width="2" height="4"/>
		<rect x="266" y="36" fill="#83AB93" width="2" height="2"/>
		<rect x="268" y="36" fill="#83AB93" width="4" height="2"/>
		<rect x="272" y="34" fill="#83AB93" width="12" height="2"/>
		<rect x="284" y="36" fill="#83AB93" width="4" height="2"/>
		<rect x="264" y="38" fill="#83AB93" width="2" height="2"/>
		<rect x="288" y="38" fill="#83AB93" width="2" height="2"/>
		<rect x="290" y="38" fill="#83AB93" width="2" height="2"/>
		<rect x="262" y="40" fill="#83AB93" width="2" height="4"/>
		<rect x="294" y="38" fill="#83AB93" width="4" height="2"/>
		<rect x="292" y="40" fill="#83AB93" width="2" height="2"/>
		<rect x="298" y="36" fill="#83AB93" width="6" height="2"/>
		<rect x="294" y="42" fill="#83AB93" width="2" height="4"/>
		<rect x="304" y="34" fill="#83AB93" width="16" height="2"/>
		<rect x="320" y="36" fill="#83AB93" width="6" height="2"/>
		<rect x="326.25" y="38" fill="#83AB93" width="3.5" height="2"/>
		<rect x="328" y="36" fill="#83AB93" width="2" height="2"/>
		<rect x="330" y="34" fill="#83AB93" width="2" height="2"/>
		<rect x="332" y="32" fill="#83AB93" width="2" height="2"/>
		<rect x="334" y="30" fill="#83AB93" width="4" height="2"/>
		<rect x="338" y="28" fill="#83AB93" width="6" height="2"/>
		<rect x="344" y="26" fill="#83AB93" width="8" height="2"/>
		<rect x="330" y="40" fill="#83AB93" width="2" height="2"/>
		<rect x="332" y="42" fill="#83AB93" width="2" height="2"/>
		<rect x="334" y="44" fill="#83AB93" width="2" height="2"/>
	</g>
</g>
</svg>
